<svg xmlns="http://www.w3.org/2000/svg" xmlns:xlink="http://www.w3.org/1999/xlink" aria-hidden="true" role="img" class="iconify iconify--logos" width="31.88" height="32" preserveAspectRatio="xMidYMid meet" viewBox="0 0 256 257"><defs><linearGradient id="IconifyId1813088fe1fbc01fb466" x1="-.828%" x2="57.636%" y1="7.652%" y2="78.411%"><stop offset="0%" stop-color="#41D1FF"></stop><stop offset="100%" stop-color="#BD34FE"></stop></linearGradient><linearGradient id="IconifyId1813088fe1fbc01fb467" x1="43.376%" x2="50.316%" y1="2.242%" y2="89.03%"><stop offset="0%" stop-color="#FFEA83"></stop><stop offset="8.333%" stop-color="#FFDD35"></stop><stop offset="100%" stop-color="#FFA800"></stop></linearGradient></defs><path fill="url(#IconifyId1813088fe1fbc01fb466)" d="M255.153 37.938L134.897 252.976c-2.483 4.44-8.862 4.466-11.382.048L.875 37.958c-2.746-4.814 1.371-10.646 6.827-9.67l120.385 21.517a6.537 6.537 0 0 0 2.322-.004l117.867-21.483c5.438-.991 9.435 4.838 6.877 9.62Z"></path><path fill="url(#IconifyId1813088fe1fbc01fb467)" d="M185.432.063L96.44 17.501a3.268 3.268 0 0 0-2.634 3.014l-5.474 92.456a3.268 3.268 0 0 0 3.997 3.378l24.777-5.718c2.318-.535 4.413 1.422 3.997 3.378l-7.361 58.25a3.268 3.268 0 0 0 3.997 3.378l29.205-6.738c2.318-.535 4.413 1.422 3.997 3.378l-7.361 58.25a3.268 3.268 0 0 0 3.997 3.378l24.777-5.718c2.318-.535 4.413 1.422 3.997 3.378l-12.786 101.217c-.732 5.792 5.591 10.092 10.43 6.937l1.655-1.158l156.531-109.395c4.785-3.347 1.12-10.258-4.625-8.67l-51.844 14.737c-2.318.535-4.413-1.422-3.997-3.378l13.335-105.543c.497-3.938-2.614-7.288-6.443-6.671l-51.844 14.737c-2.318.535-4.413-1.422-3.997-3.378l7.361-58.25c.497-3.938-2.614-7.288-6.443-6.671Z"></path></svg>
